<mxfile host="app.diagrams.net" modified="2023-11-15T07:52:52.782Z" agent="Mozilla/5.0 (X11; Ubuntu; Linux aarch64; rv:109.0) Gecko/20100101 Firefox/118.0" version="22.1.1" etag="lUJqEq6_BcpF1mgC0Oei" type="github">
  <diagram name="Page-1" id="76PbirCMchLPihSA-T0d">
    <mxGraphModel>
      <root>
        <mxCell id="0" />
        <mxCell id="1" parent="0" />
      </root>
    </mxGraphModel>
  </diagram>
</mxfile>
